<mxfile host="app.diagrams.net" modified="2022-04-29T00:40:19.665Z" agent="5.0 (Windows)" etag="FhJrRP2dTYADrW0fvQba" version="17.4.6" type="github">
  <diagram id="jEmm0ux-V2JNnDEejpwA" name="Page-1">
    <mxGraphModel dx="1422" dy="752" grid="1" gridSize="10" guides="1" tooltips="1" connect="1" arrows="1" fold="1" page="1" pageScale="1" pageWidth="827" pageHeight="1169" math="0" shadow="0">
      <root>
        <mxCell id="0" />
        <mxCell id="1" parent="0" />
        <mxCell id="XarNdDsmig1lyWmHnIRZ-1" value="" style="ellipse;whiteSpace=wrap;html=1;aspect=fixed;fillColor=#dae8fc;strokeColor=#6c8ebf;" parent="1" vertex="1">
          <mxGeometry x="60" y="100" width="365" height="365" as="geometry" />
        </mxCell>
        <mxCell id="XarNdDsmig1lyWmHnIRZ-2" value="" style="ellipse;whiteSpace=wrap;html=1;aspect=fixed;fillColor=#d5e8d4;strokeColor=#82b366;" parent="1" vertex="1">
          <mxGeometry x="103.75" y="143.75" width="277.5" height="277.5" as="geometry" />
        </mxCell>
        <mxCell id="XarNdDsmig1lyWmHnIRZ-3" value="" style="ellipse;whiteSpace=wrap;html=1;aspect=fixed;fillColor=#f8cecc;strokeColor=#b85450;" parent="1" vertex="1">
          <mxGeometry x="150" y="190" width="185" height="185" as="geometry" />
        </mxCell>
        <mxCell id="XarNdDsmig1lyWmHnIRZ-4" value="&lt;b&gt;Entidades&lt;/b&gt;" style="ellipse;whiteSpace=wrap;html=1;aspect=fixed;fillColor=#fff2cc;strokeColor=#d6b656;" parent="1" vertex="1">
          <mxGeometry x="195" y="235" width="95" height="95" as="geometry" />
        </mxCell>
        <mxCell id="XarNdDsmig1lyWmHnIRZ-5" value="&lt;b&gt;DB&lt;/b&gt;" style="text;html=1;strokeColor=none;fillColor=none;align=center;verticalAlign=middle;whiteSpace=wrap;rounded=0;rotation=0;" parent="1" vertex="1">
          <mxGeometry x="75.97000000000003" y="354.87" width="60" height="22.5" as="geometry" />
        </mxCell>
        <mxCell id="XarNdDsmig1lyWmHnIRZ-14" value="&lt;b&gt;Dispositivos&lt;/b&gt;" style="text;html=1;strokeColor=none;fillColor=none;align=center;verticalAlign=middle;whiteSpace=wrap;rounded=0;rotation=-55;" parent="1" vertex="1">
          <mxGeometry x="90" y="175" width="60" height="22.5" as="geometry" />
        </mxCell>
        <mxCell id="XarNdDsmig1lyWmHnIRZ-15" value="&lt;b&gt;Gateway&lt;/b&gt;" style="text;html=1;strokeColor=none;fillColor=none;align=center;verticalAlign=middle;whiteSpace=wrap;rounded=0;rotation=45;" parent="1" vertex="1">
          <mxGeometry x="125" y="348" width="60" height="22.5" as="geometry" />
        </mxCell>
        <mxCell id="XarNdDsmig1lyWmHnIRZ-16" value="&lt;b&gt;Apresentadores&lt;/b&gt;" style="text;html=1;strokeColor=none;fillColor=none;align=center;verticalAlign=middle;whiteSpace=wrap;rounded=0;rotation=-45;" parent="1" vertex="1">
          <mxGeometry x="295" y="348" width="60" height="22.5" as="geometry" />
        </mxCell>
        <mxCell id="XarNdDsmig1lyWmHnIRZ-17" value="&lt;b&gt;Controladores&lt;/b&gt;" style="text;html=1;strokeColor=none;fillColor=none;align=center;verticalAlign=middle;whiteSpace=wrap;rounded=0;rotation=0;" parent="1" vertex="1">
          <mxGeometry x="212.5" y="155" width="60" height="22.5" as="geometry" />
        </mxCell>
        <mxCell id="XarNdDsmig1lyWmHnIRZ-18" value="&lt;b&gt;Casos de Uso&lt;/b&gt;" style="text;html=1;strokeColor=none;fillColor=none;align=center;verticalAlign=middle;whiteSpace=wrap;rounded=0;rotation=0;" parent="1" vertex="1">
          <mxGeometry x="201.25" y="212.5" width="82.5" height="22.5" as="geometry" />
        </mxCell>
        <mxCell id="XarNdDsmig1lyWmHnIRZ-19" value="&lt;div&gt;&lt;b&gt;Interfaces&lt;/b&gt;&lt;/div&gt;&lt;div&gt;&lt;b&gt;Externas&lt;/b&gt;&lt;/div&gt;&lt;div&gt;&lt;b&gt;&lt;br&gt;&lt;/b&gt;&lt;/div&gt;" style="text;html=1;strokeColor=none;fillColor=none;align=center;verticalAlign=middle;whiteSpace=wrap;rounded=0;rotation=0;" parent="1" vertex="1">
          <mxGeometry x="212.5" y="435" width="60" height="22.5" as="geometry" />
        </mxCell>
        <mxCell id="XarNdDsmig1lyWmHnIRZ-20" value="&lt;b&gt;UI&lt;/b&gt;" style="text;html=1;strokeColor=none;fillColor=none;align=center;verticalAlign=middle;whiteSpace=wrap;rounded=0;rotation=0;" parent="1" vertex="1">
          <mxGeometry x="355" y="354.87" width="60" height="22.5" as="geometry" />
        </mxCell>
        <mxCell id="XarNdDsmig1lyWmHnIRZ-21" value="&lt;b&gt;Web&lt;/b&gt;" style="text;html=1;strokeColor=none;fillColor=none;align=center;verticalAlign=middle;whiteSpace=wrap;rounded=0;rotation=0;" parent="1" vertex="1">
          <mxGeometry x="335" y="175" width="60" height="22.5" as="geometry" />
        </mxCell>
        <mxCell id="XarNdDsmig1lyWmHnIRZ-23" value="" style="rounded=0;whiteSpace=wrap;html=1;fillColor=#fff2cc;strokeColor=#d6b656;" parent="1" vertex="1">
          <mxGeometry x="470" y="197.5" width="20" height="20" as="geometry" />
        </mxCell>
        <mxCell id="XarNdDsmig1lyWmHnIRZ-24" value="Regras de Negócio da Empresa" style="text;html=1;align=center;verticalAlign=middle;resizable=0;points=[];autosize=1;strokeColor=none;fillColor=none;" parent="1" vertex="1">
          <mxGeometry x="490" y="197.5" width="190" height="20" as="geometry" />
        </mxCell>
        <mxCell id="XarNdDsmig1lyWmHnIRZ-25" value="" style="rounded=0;whiteSpace=wrap;html=1;fillColor=#f8cecc;strokeColor=#b85450;" parent="1" vertex="1">
          <mxGeometry x="470" y="230" width="20" height="20" as="geometry" />
        </mxCell>
        <mxCell id="XarNdDsmig1lyWmHnIRZ-26" value="Regras de Negócio da Aplicação" style="text;html=1;align=center;verticalAlign=middle;resizable=0;points=[];autosize=1;strokeColor=none;fillColor=none;" parent="1" vertex="1">
          <mxGeometry x="485" y="230" width="200" height="20" as="geometry" />
        </mxCell>
        <mxCell id="XarNdDsmig1lyWmHnIRZ-27" value="" style="rounded=0;whiteSpace=wrap;html=1;fillColor=#d5e8d4;strokeColor=#82b366;" parent="1" vertex="1">
          <mxGeometry x="470" y="260" width="20" height="20" as="geometry" />
        </mxCell>
        <mxCell id="XarNdDsmig1lyWmHnIRZ-28" value="Adaptadores de Interface" style="text;html=1;align=center;verticalAlign=middle;resizable=0;points=[];autosize=1;strokeColor=none;fillColor=none;" parent="1" vertex="1">
          <mxGeometry x="490" y="260" width="150" height="20" as="geometry" />
        </mxCell>
        <mxCell id="XarNdDsmig1lyWmHnIRZ-29" value="" style="rounded=0;whiteSpace=wrap;html=1;fillColor=#dae8fc;strokeColor=#6c8ebf;" parent="1" vertex="1">
          <mxGeometry x="470" y="290" width="20" height="20" as="geometry" />
        </mxCell>
        <mxCell id="XarNdDsmig1lyWmHnIRZ-30" value="Frameworks &amp;amp; Drivers" style="text;html=1;align=center;verticalAlign=middle;resizable=0;points=[];autosize=1;strokeColor=none;fillColor=none;" parent="1" vertex="1">
          <mxGeometry x="490" y="290" width="140" height="20" as="geometry" />
        </mxCell>
        <mxCell id="XarNdDsmig1lyWmHnIRZ-31" value="" style="endArrow=none;html=1;rounded=0;entryX=0;entryY=0.5;entryDx=0;entryDy=0;exitX=0.904;exitY=0.63;exitDx=0;exitDy=0;exitPerimeter=0;" parent="1" source="XarNdDsmig1lyWmHnIRZ-1" target="XarNdDsmig1lyWmHnIRZ-29" edge="1">
          <mxGeometry width="50" height="50" relative="1" as="geometry">
            <mxPoint x="404" y="370.5" as="sourcePoint" />
            <mxPoint x="454" y="320.5" as="targetPoint" />
          </mxGeometry>
        </mxCell>
        <mxCell id="XarNdDsmig1lyWmHnIRZ-32" value="" style="endArrow=none;html=1;rounded=0;entryX=0;entryY=0.5;entryDx=0;entryDy=0;exitX=0.892;exitY=0.599;exitDx=0;exitDy=0;exitPerimeter=0;" parent="1" source="XarNdDsmig1lyWmHnIRZ-2" target="XarNdDsmig1lyWmHnIRZ-27" edge="1">
          <mxGeometry width="50" height="50" relative="1" as="geometry">
            <mxPoint x="410" y="290" as="sourcePoint" />
            <mxPoint x="460" y="240" as="targetPoint" />
          </mxGeometry>
        </mxCell>
        <mxCell id="XarNdDsmig1lyWmHnIRZ-33" value="" style="endArrow=none;html=1;rounded=0;exitX=0.865;exitY=0.595;exitDx=0;exitDy=0;exitPerimeter=0;entryX=0;entryY=0.5;entryDx=0;entryDy=0;" parent="1" source="XarNdDsmig1lyWmHnIRZ-3" target="XarNdDsmig1lyWmHnIRZ-25" edge="1">
          <mxGeometry width="50" height="50" relative="1" as="geometry">
            <mxPoint x="410" y="290" as="sourcePoint" />
            <mxPoint x="460" y="240" as="targetPoint" />
          </mxGeometry>
        </mxCell>
        <mxCell id="XarNdDsmig1lyWmHnIRZ-34" value="" style="endArrow=none;html=1;rounded=0;entryX=0;entryY=0.5;entryDx=0;entryDy=0;exitX=0.579;exitY=0.474;exitDx=0;exitDy=0;exitPerimeter=0;" parent="1" source="XarNdDsmig1lyWmHnIRZ-4" target="XarNdDsmig1lyWmHnIRZ-23" edge="1">
          <mxGeometry width="50" height="50" relative="1" as="geometry">
            <mxPoint x="410" y="290" as="sourcePoint" />
            <mxPoint x="460" y="240" as="targetPoint" />
          </mxGeometry>
        </mxCell>
        <mxCell id="XarNdDsmig1lyWmHnIRZ-35" value="&lt;b&gt;Apresentador&lt;/b&gt;" style="rounded=0;whiteSpace=wrap;html=1;" parent="1" vertex="1">
          <mxGeometry x="450" y="360" width="120" height="60" as="geometry" />
        </mxCell>
        <mxCell id="XarNdDsmig1lyWmHnIRZ-36" value="&lt;div&gt;&lt;b&gt;Porta Output &lt;br&gt;&lt;/b&gt;&lt;/div&gt;&lt;div&gt;&lt;b&gt;de Caso de Uso&lt;/b&gt;&lt;/div&gt;" style="rounded=0;whiteSpace=wrap;html=1;" parent="1" vertex="1">
          <mxGeometry x="635" y="370" width="160" height="40" as="geometry" />
        </mxCell>
        <mxCell id="XarNdDsmig1lyWmHnIRZ-37" value="&lt;div&gt;&lt;b&gt;Interação de &lt;br&gt;&lt;/b&gt;&lt;/div&gt;&lt;div&gt;&lt;b&gt;Caso de Uso&lt;/b&gt;&lt;/div&gt;" style="rounded=0;whiteSpace=wrap;html=1;" parent="1" vertex="1">
          <mxGeometry x="635" y="460" width="160" height="40" as="geometry" />
        </mxCell>
        <mxCell id="XarNdDsmig1lyWmHnIRZ-38" value="&lt;div&gt;&lt;b&gt;Porta Input de &lt;br&gt;&lt;/b&gt;&lt;/div&gt;&lt;div&gt;&lt;b&gt;Caso de Uso&lt;br&gt;&lt;/b&gt;&lt;/div&gt;" style="rounded=0;whiteSpace=wrap;html=1;" parent="1" vertex="1">
          <mxGeometry x="635" y="540" width="160" height="40" as="geometry" />
        </mxCell>
        <mxCell id="XarNdDsmig1lyWmHnIRZ-39" value="&lt;b&gt;Controlador&lt;/b&gt;" style="rounded=0;whiteSpace=wrap;html=1;" parent="1" vertex="1">
          <mxGeometry x="455" y="530" width="120" height="60" as="geometry" />
        </mxCell>
        <mxCell id="XarNdDsmig1lyWmHnIRZ-40" value="" style="endArrow=classic;html=1;rounded=0;exitX=1;exitY=0.5;exitDx=0;exitDy=0;entryX=0;entryY=0.5;entryDx=0;entryDy=0;" parent="1" source="XarNdDsmig1lyWmHnIRZ-39" target="XarNdDsmig1lyWmHnIRZ-38" edge="1">
          <mxGeometry width="50" height="50" relative="1" as="geometry">
            <mxPoint x="435" y="570" as="sourcePoint" />
            <mxPoint x="485" y="520" as="targetPoint" />
          </mxGeometry>
        </mxCell>
        <mxCell id="XarNdDsmig1lyWmHnIRZ-43" value="" style="endArrow=block;html=1;rounded=0;entryX=0.5;entryY=0;entryDx=0;entryDy=0;exitX=0.5;exitY=1;exitDx=0;exitDy=0;endFill=0;" parent="1" source="XarNdDsmig1lyWmHnIRZ-37" target="XarNdDsmig1lyWmHnIRZ-38" edge="1">
          <mxGeometry width="50" height="50" relative="1" as="geometry">
            <mxPoint x="435" y="570" as="sourcePoint" />
            <mxPoint x="485" y="520" as="targetPoint" />
          </mxGeometry>
        </mxCell>
        <mxCell id="XarNdDsmig1lyWmHnIRZ-44" value="" style="endArrow=classic;html=1;rounded=0;entryX=0.5;entryY=1;entryDx=0;entryDy=0;exitX=0.5;exitY=0;exitDx=0;exitDy=0;" parent="1" source="XarNdDsmig1lyWmHnIRZ-37" target="XarNdDsmig1lyWmHnIRZ-36" edge="1">
          <mxGeometry width="50" height="50" relative="1" as="geometry">
            <mxPoint x="435" y="570" as="sourcePoint" />
            <mxPoint x="485" y="520" as="targetPoint" />
          </mxGeometry>
        </mxCell>
        <mxCell id="XarNdDsmig1lyWmHnIRZ-45" value="" style="endArrow=block;html=1;rounded=0;exitX=1;exitY=0.5;exitDx=0;exitDy=0;entryX=0;entryY=0.5;entryDx=0;entryDy=0;endFill=0;" parent="1" source="XarNdDsmig1lyWmHnIRZ-35" target="XarNdDsmig1lyWmHnIRZ-36" edge="1">
          <mxGeometry width="50" height="50" relative="1" as="geometry">
            <mxPoint x="435" y="570" as="sourcePoint" />
            <mxPoint x="485" y="520" as="targetPoint" />
          </mxGeometry>
        </mxCell>
        <mxCell id="XarNdDsmig1lyWmHnIRZ-46" value="" style="curved=1;endArrow=classic;html=1;rounded=0;exitX=0.5;exitY=0;exitDx=0;exitDy=0;entryX=0.5;entryY=1;entryDx=0;entryDy=0;" parent="1" source="XarNdDsmig1lyWmHnIRZ-39" target="XarNdDsmig1lyWmHnIRZ-35" edge="1">
          <mxGeometry width="50" height="50" relative="1" as="geometry">
            <mxPoint x="435" y="570" as="sourcePoint" />
            <mxPoint x="485" y="520" as="targetPoint" />
            <Array as="points">
              <mxPoint x="505" y="540" />
              <mxPoint x="675" y="480" />
              <mxPoint x="495" y="450" />
            </Array>
          </mxGeometry>
        </mxCell>
        <mxCell id="XarNdDsmig1lyWmHnIRZ-48" value="&lt;b&gt;Fluxo de controle&lt;br&gt;&lt;/b&gt;" style="text;html=1;align=center;verticalAlign=middle;resizable=0;points=[];autosize=1;strokeColor=none;fillColor=none;" parent="1" vertex="1">
          <mxGeometry x="485" y="490" width="110" height="20" as="geometry" />
        </mxCell>
        <mxCell id="XarNdDsmig1lyWmHnIRZ-50" value="&lt;h1&gt;A Arquitetura Limpa&lt;/h1&gt;" style="text;html=1;align=center;verticalAlign=middle;resizable=0;points=[];autosize=1;strokeColor=none;fillColor=none;" parent="1" vertex="1">
          <mxGeometry x="282.5" y="40" width="250" height="50" as="geometry" />
        </mxCell>
      </root>
    </mxGraphModel>
  </diagram>
</mxfile>
